<?xml version="1.0" encoding="utf-8"?>
<!-- Generator: Adobe Illustrator 16.0.0, SVG Export Plug-In . SVG Version: 6.00 Build 0)  -->
<!DOCTYPE svg PUBLIC "-//W3C//DTD SVG 1.1//EN" "http://www.w3.org/Graphics/SVG/1.1/DTD/svg11.dtd">
<svg version="1.1" id="Capa_1" xmlns="http://www.w3.org/2000/svg" xmlns:xlink="http://www.w3.org/1999/xlink" x="0px" y="0px"
	 width="100px" height="66.584px" viewBox="0 0 100 66.584" enable-background="new 0 0 100 66.584" xml:space="preserve">
<g>
	<path fill="#5A5A5A" d="M7.021,49.907v5.835c0,2.463,2.006,4.469,4.47,4.469h77.017c2.464,0,4.471-2.006,4.471-4.469v-5.835H7.021z
		 M60.052,54.486c0,0.742-0.598,1.338-1.336,1.338H41.28c-0.736,0-1.331-0.596-1.331-1.338v-1.674c0-0.01,0.002-0.018,0.002-0.029
		h20.097c0,0.012,0.004,0.02,0.004,0.029V54.486z"/>
	<polygon fill="#5A5A5A" points="39.167,18.18 39.188,35.514 44.545,30.157 54.237,39.849 60.833,33.255 51.141,23.562 
		56.497,18.205 	"/>
	<path fill="#5A5A5A" d="M17.604,6.217h64.793v38.368h5.583V5.154c0-2.492-2.028-4.52-4.521-4.52H16.541
		c-2.492,0-4.521,2.028-4.521,4.52v39.431h5.583V6.217z"/>
</g>
</svg>
