<?xml version="1.0" encoding="utf-8"?>
<!-- Generator: Adobe Illustrator 16.0.0, SVG Export Plug-In . SVG Version: 6.00 Build 0)  -->
<!DOCTYPE svg PUBLIC "-//W3C//DTD SVG 1.1//EN" "http://www.w3.org/Graphics/SVG/1.1/DTD/svg11.dtd">
<svg version="1.1" id="Capa_1" xmlns="http://www.w3.org/2000/svg" xmlns:xlink="http://www.w3.org/1999/xlink" x="0px" y="0px"
	 width="100px" height="85px" viewBox="0 0 100 85" enable-background="new 0 0 100 85" xml:space="preserve">
<path fill="#5A5A5A" d="M73.235,58.883c-1.176-4.357-2.261-5.36-5.751-6.746c-2.605-1.035-6.66-2.969-10.416-4.828
	c-0.104-0.051,2.079-3.859,2.633-5.488c0.841-2.471,1.62-6.807,1.62-10.028c0-3.221-0.313-5.572-0.951-8.02
	c-1.782-6.839-6.104-11.601-13.296-11.601c-9.762,0-14.258,8.242-13.751,19.621c0.45,10.145-1.729,13.583-2.115,17.16
	c1.939-0.617,4.011-1.232,5.97-1.796c-2,0.991-9.441,4.472-10.724,4.98c-3.49,1.386-4.574,2.389-5.751,6.746
	c-1.176,4.357-1.83,21.784-1.83,21.784h56.191C75.064,80.667,74.411,63.24,73.235,58.883z M40.646,42.128
	c-2.03-2.965-3.315-7.081-3.315-10.796c0-3.652,7.405-4.618,12.745-11.358c3.12,1.845,6.372,4.575,6.372,11.358
	c0,3.023-0.851,6.313-2.263,9.031c-0.324,0.623-1.018,1.667-1.864,2.681c-2.008,2.409-3.658,3.418-4.521,4.054
	c0,0,2.586,0.079,5.331-0.654c0,0,0,2.037,0,2.039c0,0-0.564,3.414-2.003,6.603c-0.164,0.364-0.341,0.735-0.532,1.11l-8.251-1.815
	c-1.2-2.883-1.604-5.274-1.683-5.797h-0.016v-0.108V42.128z M45.009,76.748c-7.46,0.722-17.415,0.115-17.415,0.115l6.11-22.692
	l25.708,5.657l-3.036,11.029c-0.815,0.179-1.738,0.292-2.786,0.274c-0.894-0.014-1.975,0.841-2.824,1.971
	c-0.691,0.919-1.229,2.019-1.391,2.991C48.128,76.353,46.686,76.585,45.009,76.748z"/>
<g>
	<g>
		<path fill="#FFFFFF" d="M50.726,29.693c-2.31-3.123-3.525-6.741-3.525-10.518c0-10.506,9.516-19.053,21.213-19.053
			S89.627,8.67,89.627,19.176S80.11,38.229,68.413,38.229c-4.687,0-9.242-1.4-12.94-3.959l-8.318,4.636L50.726,29.693z"/>
		<path fill="#FFFFFF" d="M68.413,1.623c10.888,0,19.714,7.859,19.714,17.553s-8.826,17.553-19.714,17.553
			c-4.903,0-9.386-1.598-12.834-4.236l-5.523,3.079l2.375-6.126c-2.345-2.888-3.73-6.434-3.73-10.27
			C48.7,9.481,57.526,1.623,68.413,1.623 M68.413-1.377C55.89-1.377,45.7,7.843,45.7,19.176c0,3.829,1.147,7.504,3.336,10.727
			l-1.777,4.584l-3.006,7.753l7.264-4.048l3.89-2.168c3.797,2.4,8.343,3.705,13.007,3.705c12.524,0,22.714-9.22,22.714-20.553
			S80.938-1.377,68.413-1.377L68.413-1.377z"/>
	</g>
	<path fill="#5A5A5A" stroke="#5A5A5A" stroke-width="2" stroke-miterlimit="10" d="M68.413,3.362
		c9.911,0,17.975,7.094,17.975,15.814S78.324,34.99,68.413,34.99c-4.325,0-8.508-1.377-11.777-3.878l-0.906-0.693l-0.997,0.555
		l-1.313,0.731l0.632-1.63l0.365-0.942l-0.637-0.783c-2.186-2.693-3.341-5.865-3.341-9.173C50.439,10.456,58.502,3.362,68.413,3.362
		 M68.413,1.623C57.526,1.623,48.7,9.481,48.7,19.176c0,3.835,1.386,7.382,3.73,10.27l-2.375,6.126l5.523-3.079
		c3.448,2.638,7.931,4.236,12.834,4.236c10.888,0,19.714-7.859,19.714-17.553S79.301,1.623,68.413,1.623L68.413,1.623z"/>
</g>
<g>
	<path fill="#5A5A5A" d="M37.577,65.691c-0.21,0.046-0.598,0.029-1.059-0.079c-1.718-0.404-2.203-2.015-1.753-3.924
		c0.596-2.538,2.237-3.195,3.547-2.888c0.459,0.107,0.758,0.272,0.867,0.394L38.7,60.242c-0.133-0.105-0.288-0.206-0.578-0.274
		c-0.739-0.174-1.559,0.31-1.952,1.977c-0.378,1.609,0.082,2.382,0.882,2.57c0.221,0.051,0.481,0.062,0.653,0.047L37.577,65.691z"/>
	<path fill="#5A5A5A" d="M39.454,66.239l0.074-7.091l1.45,0.341l-0.204,3.021c-0.051,0.749-0.105,1.609-0.201,2.42l0.02,0.005
		c0.278-0.777,0.58-1.562,0.878-2.293l1.136-2.77l1.439,0.338l-3.124,6.373L39.454,66.239z"/>
</g>
<g>
	<path fill="#FFFFFF" d="M68.413,34.258c-3.897,0-8.549-1.63-11.849-4.152l-0.286-0.218l-3.332,2.254l1.704-4.147l-0.187-0.23
		c-2.053-2.528-3.051-5.338-3.051-8.588c0-8.316,7.626-15.083,17-15.083s17,6.766,17,15.083S77.787,34.258,68.413,34.258z"/>
	<path fill="#FFFFFF" d="M68.413,4.593c9.098,0,16.5,6.542,16.5,14.583s-7.402,14.583-16.5,14.583
		c-3.795,0-8.326-1.589-11.545-4.049l-0.572-0.437L55.7,29.675l-1.661,1.124L55,28.459l0.226-0.549l-0.374-0.461
		c-1.978-2.436-2.938-5.142-2.938-8.273C51.913,11.135,59.315,4.593,68.413,4.593 M68.413,3.593c-9.664,0-17.5,6.977-17.5,15.583
		c0,3.405,1.081,6.34,3.162,8.903l-2.221,5.405l4.406-2.981c3.063,2.341,7.798,4.255,12.152,4.255c9.665,0,17.5-6.977,17.5-15.583
		S78.078,3.593,68.413,3.593L68.413,3.593z"/>
</g>
</svg>
