<?xml version="1.0" encoding="utf-8"?>
<!-- Generator: Adobe Illustrator 16.0.0, SVG Export Plug-In . SVG Version: 6.00 Build 0)  -->
<!DOCTYPE svg PUBLIC "-//W3C//DTD SVG 1.1//EN" "http://www.w3.org/Graphics/SVG/1.1/DTD/svg11.dtd">
<svg version="1.1" id="Capa_1" xmlns="http://www.w3.org/2000/svg" xmlns:xlink="http://www.w3.org/1999/xlink" x="0px" y="0px"
	 width="100px" height="72.5px" viewBox="0 0 100 72.5" enable-background="new 0 0 100 72.5" xml:space="preserve">
<g>
	<path fill="#5A5A5A" d="M87.597,28.291c-1.131-1.267-3.004-1.894-5.174-2.62c-1.025-0.343-2.707-0.904-3.264-1.29
		c-0.078-0.181-0.142-0.458-0.18-0.833c2.801-0.736,4.873-3.288,4.873-6.317c0-1.329-0.417-2.614-1.153-3.687
		c0.01-0.038,0.02-0.076,0.031-0.112c1.343-5.456-2.329-11.069-8.188-12.514c-0.762-0.189-1.546-0.284-2.331-0.284
		c-3.28,0-6.111,3.88-6.111,3.88h2.863c0.999-0.483,2.098-0.788,3.248-0.788c0.522,0,1.054,0.062,1.591,0.195
		c4.21,1.038,6.863,4.964,5.923,8.768c-0.141,0.572-0.354,1.107-0.632,1.604c0.997,0.601,1.665,1.691,1.665,2.938
		c0,1.75-1.306,3.188-2.994,3.405l-1.935,0.362c-0.042,1.546-0.098,4.213,1,5.44c1.517,1.694,7.23,2.533,8.453,3.909
		c2.911,3.271,2.614,17.536,2.614,18.339c0,0.803,0.388,6.753-5.914,7.755l0.079,8.385h1.792l1.245-6.063
		c3.813-1.586,5.973-5.159,5.892-9.994l-0.001-0.085l0.003-0.183C91.1,37.749,89.957,30.948,87.597,28.291z"/>
	<path fill="#5A5A5A" d="M62.279,19.255c0.273-7.152,2.456-10.818,2.61-11.069L9,8.162v56.37l49.373,0.093
		c1.295-3.887,3.005-9.564,3.088-12.095c-0.637-4.272-1.455-9.18-2.137-12.592c0,0-6.943,4.336-10.365,4.336
		c-0.303,0-0.576-0.034-0.816-0.107c-2.956-0.91-15.686-13.366-15.686-13.366l4-4.272c0,0,9.957,8.91,12.729,9.092
		c0.052,0.003,0.104,0.005,0.155,0.005c2.791,0,7.358-4.668,10.394-6.051c3.088-1.411,6.636-1.684,7.274-2.591
		c0.636-0.909,0.098-4.709,0.098-4.709S62.174,22.042,62.279,19.255z M25.719,20.972h-3.715v-3.407h3.715V20.972z M34.665,20.972
		h-3.714v-3.407h3.714V20.972z M43.611,20.972h-3.715v-3.407h3.715V20.972z"/>
</g>
</svg>
