<?xml version="1.0" encoding="utf-8"?>
<!-- Generator: Adobe Illustrator 16.0.0, SVG Export Plug-In . SVG Version: 6.00 Build 0)  -->
<!DOCTYPE svg PUBLIC "-//W3C//DTD SVG 1.1//EN" "http://www.w3.org/Graphics/SVG/1.1/DTD/svg11.dtd">
<svg version="1.1" id="Capa_1" xmlns="http://www.w3.org/2000/svg" xmlns:xlink="http://www.w3.org/1999/xlink" x="0px" y="0px"
	 width="100px" height="85px" viewBox="0 0 100 85" enable-background="new 0 0 100 85" xml:space="preserve">
<g>
	<path fill="#5A5A5A" d="M18.936,71.331c-0.172-0.333-0.28-0.705-0.28-1.104V7.299c0-1.339,1.092-2.43,2.431-2.43h50.88
		c0.502,0,0.97,0.154,1.357,0.417c0.646,0.438,1.072,1.177,1.072,2.015v33.185c1.247,0.264,2.443,0.671,3.568,1.207V7.299
		c0-2.48-1.514-4.614-3.667-5.525c-0.179-0.076-0.362-0.144-0.55-0.202c-0.376-0.118-0.767-0.199-1.169-0.24
		c-0.202-0.021-0.406-0.031-0.612-0.031h-50.88c-3.307,0-5.998,2.69-5.998,5.998v62.927c0,1.612,0.643,3.076,1.682,4.155
		c0.026,0.026,0.051,0.058,0.077,0.084s0.058,0.051,0.086,0.077c1.078,1.039,2.542,1.683,4.153,1.683h40.548l0.251-3.568H21.087
		C20.147,72.657,19.339,72.114,18.936,71.331z"/>
	<rect x="24.288" y="11.534" fill="#5A5A5A" width="39.213" height="3.952"/>
	<rect x="24.288" y="22.172" fill="#5A5A5A" width="39.213" height="3.952"/>
	<rect x="24.288" y="32.811" fill="#5A5A5A" width="39.213" height="3.952"/>
	<path fill="#5A5A5A" d="M61.261,43.447H24.288V47.4h33.278C58.568,45.885,59.819,44.548,61.261,43.447z"/>
	<path fill="#5A5A5A" d="M24.288,54.085v3.953h30.704c-0.063-0.573-0.102-1.156-0.102-1.747c0-0.748,0.056-1.482,0.154-2.206H24.288
		z"/>
	<path fill="#5A5A5A" d="M83.619,56.291c0-6.943-5.627-12.572-12.57-12.572c-6.944,0-12.572,5.629-12.572,12.572
		c0,5.079,3.016,9.442,7.351,11.428l-1.064,15.1l6.475-2.995l6.096,2.995l-1.063-15.1C80.603,65.733,83.619,61.37,83.619,56.291z
		 M77.214,60.358c-1.71,2.538-4.724,3.675-7.552,3.114c1.798-0.913,3.591-2.499,5.014-4.61c1.545-2.296,2.358-4.766,2.423-6.901
		C78.831,54.392,78.981,57.735,77.214,60.358z"/>
</g>
</svg>
